<svg width="49" height="49" viewBox="0 0 49 49" fill="none" xmlns="http://www.w3.org/2000/svg">
<path fill-rule="evenodd" clip-rule="evenodd" d="M6.95174 7.74667C6.95174 6.98022 7.56673 6.35889 8.32536 6.35889H30.3033C31.0619 6.35889 31.6769 6.98022 31.6769 7.74667C31.6769 8.51312 31.0619 9.13445 30.3033 9.13445V14.6856H41.2922C42.0508 14.6856 42.6658 15.3069 42.6658 16.0733C42.6658 16.8398 42.0508 17.4611 41.2922 17.4611V39.6656H42.6658C43.4245 39.6656 44.0394 40.2869 44.0394 41.0534C44.0394 41.8198 43.4245 42.4412 42.6658 42.4412H6.95174C6.19311 42.4412 5.57812 41.8198 5.57812 41.0534C5.57812 40.2869 6.19311 39.6656 6.95174 39.6656H8.32536V9.13445C7.56673 9.13445 6.95174 8.51312 6.95174 7.74667ZM11.0726 9.13445V39.6656H13.8198V34.8084C13.8198 32.8928 15.3579 31.3389 17.2539 31.3389H21.3747C23.2707 31.3389 24.8088 32.8928 24.8088 34.8084V39.6656H27.556V9.13445H11.0726ZM30.3033 17.4611V39.6656H38.545V17.4611H30.3033ZM22.0615 39.6656V34.8084C22.0615 34.4257 21.7535 34.1145 21.3747 34.1145H17.2539C16.8752 34.1145 16.5671 34.4257 16.5671 34.8084V39.6656H22.0615ZM13.8198 14.6856C13.8198 13.9191 14.4348 13.2978 15.1935 13.2978H16.5671C17.3257 13.2978 17.9407 13.9191 17.9407 14.6856C17.9407 15.452 17.3257 16.0733 16.5671 16.0733H15.1935C14.4348 16.0733 13.8198 15.452 13.8198 14.6856ZM20.6879 14.6856C20.6879 13.9191 21.3029 13.2978 22.0615 13.2978H23.4352C24.1938 13.2978 24.8088 13.9191 24.8088 14.6856C24.8088 15.452 24.1938 16.0733 23.4352 16.0733H22.0615C21.3029 16.0733 20.6879 15.452 20.6879 14.6856ZM13.8198 20.2367C13.8198 19.4702 14.4348 18.8489 15.1935 18.8489H16.5671C17.3257 18.8489 17.9407 19.4702 17.9407 20.2367C17.9407 21.0031 17.3257 21.6245 16.5671 21.6245H15.1935C14.4348 21.6245 13.8198 21.0031 13.8198 20.2367ZM20.6879 20.2367C20.6879 19.4702 21.3029 18.8489 22.0615 18.8489H23.4352C24.1938 18.8489 24.8088 19.4702 24.8088 20.2367C24.8088 21.0031 24.1938 21.6245 23.4352 21.6245H22.0615C21.3029 21.6245 20.6879 21.0031 20.6879 20.2367ZM33.0505 23.0122C33.0505 22.2458 33.6655 21.6245 34.4241 21.6245H34.4388C35.1974 21.6245 35.8124 22.2458 35.8124 23.0122V23.027C35.8124 23.7935 35.1974 24.4148 34.4388 24.4148H34.4241C33.6655 24.4148 33.0505 23.7935 33.0505 23.027V23.0122ZM13.8198 25.7878C13.8198 25.0214 14.4348 24.4 15.1935 24.4H16.5671C17.3257 24.4 17.9407 25.0214 17.9407 25.7878C17.9407 26.5542 17.3257 27.1756 16.5671 27.1756H15.1935C14.4348 27.1756 13.8198 26.5542 13.8198 25.7878ZM20.6879 25.7878C20.6879 25.0214 21.3029 24.4 22.0615 24.4H23.4352C24.1938 24.4 24.8088 25.0214 24.8088 25.7878C24.8088 26.5542 24.1938 27.1756 23.4352 27.1756H22.0615C21.3029 27.1756 20.6879 26.5542 20.6879 25.7878ZM33.0505 28.5634C33.0505 27.7969 33.6655 27.1756 34.4241 27.1756H34.4388C35.1974 27.1756 35.8124 27.7969 35.8124 28.5634V28.5782C35.8124 29.3446 35.1974 29.9659 34.4388 29.9659H34.4241C33.6655 29.9659 33.0505 29.3446 33.0505 28.5782V28.5634ZM33.0505 34.1145C33.0505 33.348 33.6655 32.7267 34.4241 32.7267H34.4388C35.1974 32.7267 35.8124 33.348 35.8124 34.1145V34.1293C35.8124 34.8957 35.1974 35.5171 34.4388 35.5171H34.4241C33.6655 35.5171 33.0505 34.8957 33.0505 34.1293V34.1145Z" fill="#47AE34"/>
</svg>
