<svg width="49" height="49" viewBox="0 0 49 49" fill="none" xmlns="http://www.w3.org/2000/svg">
<path d="M41.4257 23.6958C41.4257 14.0306 33.681 6.1958 24.1269 6.1958C14.5728 6.1958 6.82812 14.0306 6.82812 23.6958C6.82812 33.3611 14.5728 41.1958 24.1269 41.1958" stroke="#47AE34" stroke-width="2.26576" stroke-linecap="round" stroke-linejoin="round"/>
<path d="M25.8587 6.28369C25.8587 6.28369 31.0484 13.1962 31.0484 23.6962M22.399 41.1087C22.399 41.1087 17.2094 34.1962 17.2094 23.6962C17.2094 13.1962 22.399 6.28369 22.399 6.28369M7.91992 29.8212H24.1289M7.91992 17.5712H40.3378" stroke="#47AE34" stroke-width="2.26576" stroke-linecap="round" stroke-linejoin="round"/>
<path d="M41.217 34.0502C42.0715 34.5822 42.0179 35.8754 41.1391 35.9769L36.6985 36.4862L34.7075 40.5322C34.313 41.3354 33.0935 40.9417 32.8911 39.9477L30.7201 29.2447C30.5488 28.4047 31.2961 27.8762 32.0175 28.3259L41.217 34.0502V34.0502Z" stroke="#47AE34" stroke-width="2.26576"/>
</svg>
