<svg width="321" height="73" viewBox="0 0 321 73" fill="none" xmlns="http://www.w3.org/2000/svg">
<path fill-rule="evenodd" clip-rule="evenodd" d="M17.3065 71.2865H0.146484V0.186523H17.3065V26.8775H41.9965V0.186523H59.1565V71.2865H41.9965V42.7355H17.3065V71.2865ZM14.3065 39.7355H44.9965V68.2865H56.1565V3.18652H44.9965V29.8775H14.3065V3.18652H3.14648V68.2865H14.3065V39.7355ZM69.6472 65.2845L69.6389 65.2761C65.0372 60.6014 62.9179 54.2111 62.9179 46.5245V43.5485C62.9179 39.7365 63.4527 36.2258 64.5792 33.0575L64.5891 33.0298L64.5994 33.0023C65.7891 29.8531 67.4972 27.1245 69.7485 24.8732C72.0464 22.5753 74.7709 20.858 77.8845 19.7214C81.0081 18.5191 84.475 17.9495 88.2378 17.9495C95.824 17.9495 102.129 20.1142 106.736 24.789C111.402 29.4608 113.558 35.8539 113.558 43.5485V46.5245C113.558 50.3441 112.99 53.8651 111.794 57.043C110.661 60.2176 108.944 62.983 106.634 65.2928C104.383 67.5442 101.654 69.2522 98.5051 70.4419L98.4876 70.4485L98.4701 70.4549C95.3616 71.5853 91.9377 72.1235 88.2378 72.1235C80.6451 72.1235 74.3184 69.9557 69.6555 65.2928L69.6472 65.2845ZM108.977 56.0105C110.031 53.2205 110.558 50.0585 110.558 46.5245V43.5485C110.558 36.4185 108.574 30.8695 104.606 26.9015C100.7 22.9335 95.2439 20.9495 88.2378 20.9495C84.7659 20.9495 81.6658 21.4765 78.9379 22.5305C76.2099 23.5225 73.8539 25.0105 71.8699 26.9945C69.9479 28.9165 68.4598 31.2725 67.4059 34.0625C66.4138 36.8525 65.9178 40.0145 65.9178 43.5485V46.5245C65.9178 53.6545 67.8708 59.2035 71.7768 63.1715C75.7449 67.1395 81.2318 69.1235 88.2378 69.1235C91.6479 69.1235 94.7169 68.6275 97.4448 67.6355C100.235 66.5815 102.591 65.0935 104.513 63.1715C106.497 61.1875 107.985 58.8005 108.977 56.0105ZM94.1255 53.9744L94.1423 53.9565C95.3254 52.6971 96.2119 50.4283 96.2119 46.5245V43.5485C96.2119 39.7426 95.3114 37.5116 94.0822 36.244L94.05 36.2109L94.019 36.1768C92.7759 34.8135 90.9834 33.9935 88.2378 33.9935C85.3176 33.9935 83.4734 34.8147 82.2576 36.0983C81.1207 37.3613 80.2638 39.6423 80.2638 43.5485V46.5245C80.2638 50.3115 81.1257 52.609 82.3333 53.9557C83.6412 55.2861 85.4908 56.0795 88.2378 56.0795C91.1768 56.0795 92.9666 55.2492 94.109 53.9925L94.1255 53.9744ZM80.0538 34.0625C81.9759 32.0165 84.7038 30.9935 88.2378 30.9935C91.6479 30.9935 94.3139 32.0475 96.2359 34.1555C98.2198 36.2015 99.2119 39.3325 99.2119 43.5485V46.5245C99.2119 50.8025 98.2508 53.9645 96.3288 56.0105C94.4688 58.0565 91.7719 59.0795 88.2378 59.0795C84.8279 59.0795 82.1309 58.0565 80.1469 56.0105C78.2249 53.9025 77.2638 50.7405 77.2638 46.5245V43.5485C77.2638 39.2705 78.1938 36.1085 80.0538 34.0625ZM116.84 18.7865H137.975C141.608 18.7865 144.819 19.1091 147.555 19.8105C150.232 20.497 152.582 21.5344 154.477 23.0188C156.404 24.4196 157.873 26.1927 158.78 28.3366C159.638 30.3647 160.04 32.5674 160.04 34.8995C160.04 37.2861 159.436 39.5391 158.243 41.6067C157.791 42.3904 157.255 43.1145 156.644 43.782C157.798 44.6748 158.78 45.7203 159.555 46.9355C161.11 49.2801 161.9 51.8949 161.9 54.7085C161.9 57.141 161.506 59.4255 160.655 61.5134C159.758 63.7144 158.299 65.5561 156.367 67.0303C154.467 68.5276 152.106 69.5724 149.415 70.2625C146.679 70.9639 143.468 71.2865 139.835 71.2865H116.84V18.7865ZM154.529 64.6595C156.079 63.4815 157.195 62.0555 157.877 60.3815C158.559 58.7075 158.9 56.8165 158.9 54.7085C158.9 52.4765 158.28 50.4305 157.04 48.5705C156.375 47.5213 155.474 46.6004 154.336 45.8076C153.457 45.195 152.436 44.659 151.274 44.1995C152.354 43.592 153.278 42.9109 154.045 42.1563C154.688 41.5249 155.221 40.8419 155.645 40.1075C156.575 38.4955 157.04 36.7595 157.04 34.8995C157.04 32.9155 156.699 31.1175 156.017 29.5055C155.335 27.8935 154.219 26.5295 152.669 25.4135C151.181 24.2355 149.228 23.3365 146.81 22.7165C144.392 22.0965 141.447 21.7865 137.975 21.7865H119.84V68.2865H139.835C143.307 68.2865 146.252 67.9765 148.67 67.3565C151.088 66.7365 153.041 65.8375 154.529 64.6595ZM143.859 52.5449L143.794 52.4868C143.546 52.2663 142.536 51.7565 139.835 51.7565H133.256V56.7305H139.835C142.549 56.7305 143.599 56.2498 143.862 56.0342C144.268 55.6894 144.554 55.2148 144.554 54.2435C144.554 53.2636 144.267 52.8669 143.928 52.5992L143.859 52.5449ZM130.256 59.7305V48.7565H139.835C142.687 48.7565 144.671 49.2525 145.787 50.2445C146.965 51.1745 147.554 52.5075 147.554 54.2435C147.554 55.9795 146.965 57.3435 145.787 58.3355C144.671 59.2655 142.687 59.7305 139.835 59.7305H130.256ZM142.145 36.7421L142.178 36.7165C142.454 36.5015 142.694 36.198 142.694 35.3645C142.694 34.5311 142.454 34.2276 142.178 34.0126L142.145 33.9869L142.113 33.9603C142.114 33.9617 142.052 33.9107 141.877 33.8366C141.703 33.7627 141.447 33.6784 141.086 33.6008C140.355 33.4434 139.335 33.3425 137.975 33.3425H133.256V37.3865H137.975C139.335 37.3865 140.355 37.2857 141.086 37.1283C141.447 37.0507 141.703 36.9663 141.877 36.8924C142.052 36.8183 142.114 36.7674 142.113 36.7687L142.145 36.7421ZM137.975 40.3865C140.951 40.3865 142.966 39.9525 144.02 39.0845C145.136 38.2165 145.694 36.9765 145.694 35.3645C145.694 33.7525 145.136 32.5125 144.02 31.6445C142.966 30.7765 140.951 30.3425 137.975 30.3425H130.256V40.3865H137.975ZM196.218 48.1771V71.2865H213.006V18.7865H194.654L181.944 41.896V18.7865H165.156V71.2865H183.508L196.218 48.1771ZM199.218 35.4575L195.033 44.1065L181.734 68.2865H168.156V21.7865H178.944V54.6155L183.129 45.9665L196.428 21.7865H210.006V68.2865H199.218V35.4575ZM235.891 71.2865H219.103V18.7865H235.891V36.8285H250.165V18.7865H266.953V71.2865H250.165V52.3145H235.891V71.2865ZM232.891 49.3145H253.165V68.2865H263.953V21.7865H253.165V39.8285H232.891V21.7865H222.103V68.2865H232.891V49.3145ZM304.113 48.1771V71.2865H320.901V18.7865H302.549L289.839 41.8959V18.7865H273.051V71.2865H291.402L304.113 48.1771ZM307.113 35.4575L302.928 44.1065L289.629 68.2865H276.051V21.7865H286.839V54.6155L291.024 45.9665L304.323 21.7865H317.901V68.2865H307.113V35.4575Z" fill="#47AE34"/>
</svg>
