<svg width="436" height="57" viewBox="0 0 436 57" fill="none" xmlns="http://www.w3.org/2000/svg">
<path fill-rule="evenodd" clip-rule="evenodd" d="M0 55.9827H14.0381V34.126H32.1752V55.9827H46.2133V0.711944H32.1752V21.1447H14.0381V0.711944H0V55.9827ZM34.9043 31.4087H11.3091V53.2654H2.72903V3.42929H11.3091V23.8621H34.9043V3.42929H43.4843V53.2654H34.9043V31.4087ZM50.353 37.1494L50.3445 37.1703L50.3364 37.1912C49.6237 39.0246 49.2943 41.0263 49.2943 43.1558C49.2943 47.0907 50.484 50.5033 53.1443 53.0261C55.8257 55.5689 59.5394 56.6235 63.821 56.6235C66.6903 56.6235 69.3469 56.0837 71.7267 54.9302C72.383 54.6184 73.0074 54.2674 73.599 53.8776L73.9667 55.9827H85.4976V29.0593C85.4976 24.7565 84.064 21.0716 81.0413 18.3026C77.9611 15.481 73.6021 14.3101 68.4685 14.3101C63.1592 14.3101 58.6733 15.4056 55.535 18.0997C52.5806 20.6296 50.963 23.9301 50.7292 27.8294L50.5566 30.7087H56.5574C55.6577 31.1483 54.8227 31.6625 54.0608 32.2579C52.3942 33.55 51.1504 35.195 50.353 37.1494ZM73.0771 50.8894C72.3138 51.5119 71.4687 52.0428 70.542 52.4822C68.5877 53.4315 66.3473 53.9061 63.821 53.9061C59.9599 53.9061 57.0284 52.9569 55.0264 51.0584C53.0244 49.1598 52.0234 46.5257 52.0234 43.1558C52.0234 41.3047 52.3094 39.6435 52.8814 38.1722C53.501 36.6534 54.4544 35.3956 55.7414 34.3989C57.0761 33.3547 58.7683 32.5715 60.8179 32.0494C62.9153 31.4799 65.4655 31.1951 68.4685 31.1951H74.4745V29.0593C74.4745 28.8596 74.468 28.6658 74.455 28.4778C74.3566 27.0569 73.8865 25.9693 73.0445 25.2148C72.1388 24.313 70.6135 23.8621 68.4685 23.8621C66.4665 23.8621 65.0126 24.2418 64.107 25.0012C63.2013 25.7606 62.6531 26.7573 62.4625 27.9914H53.4534C53.5108 27.034 53.6676 26.1282 53.9237 25.274C54.5184 23.2911 55.6486 21.5864 57.3144 20.16C59.7454 18.0716 63.4635 17.0274 68.4685 17.0274C73.2352 17.0274 76.8102 18.1191 79.1936 20.3024C81.5769 22.4857 82.7686 25.4046 82.7686 29.0593V53.2654H76.262L75.404 48.353C74.7384 49.3217 73.9627 50.1672 73.0771 50.8894ZM68.4685 28.4778C67.3068 28.4778 66.1929 28.518 65.1293 28.6013L65.1597 28.4046C65.2564 27.7788 65.4959 27.3891 65.8648 27.0797C66.0375 26.935 66.7021 26.5794 68.4685 26.5794C70.3505 26.5794 70.9739 26.996 71.1148 27.1362L71.1656 27.1868L71.2189 27.2346C71.3844 27.3829 71.6326 27.7003 71.7166 28.4778H68.4685ZM69.929 42.6285C69.3942 43.1226 68.7219 43.5564 67.876 43.9107C67.1418 44.1925 66.2779 44.3541 65.251 44.3541C64.3622 44.3541 63.976 44.1403 63.791 43.9808C63.6433 43.8216 63.4755 43.5369 63.4755 42.871C63.4755 41.9828 63.7476 41.4974 64.2095 41.114C64.579 40.8075 65.7392 40.32 68.4685 40.32H71.4593C71.4107 40.4508 71.3562 40.5794 71.2956 40.706C70.9627 41.4021 70.5125 42.0413 69.929 42.6285ZM62.4625 39.0265C63.6065 38.0772 65.6085 37.6026 68.4685 37.6026H74.4745V38.6705C74.4745 39.238 74.4154 39.7878 74.2971 40.32C74.1779 40.856 73.9987 41.3741 73.7595 41.8743C73.2829 42.871 72.6394 43.7728 71.829 44.5797C71.0187 45.3391 70.0415 45.9561 68.8975 46.4307C67.8012 46.8579 66.5856 47.0715 65.251 47.0715C63.821 47.0715 62.7008 46.6918 61.8904 45.9324C61.1278 45.173 60.7464 44.1525 60.7464 42.871C60.7464 41.2573 61.3184 39.9758 62.4625 39.0265ZM102.996 14.9508H89.2438V55.9827H139.747V14.9508H125.995V43.2862H121.372V14.9508H107.619V43.2862H102.996V14.9508ZM118.642 46.0036H128.724V17.6682H137.018V53.2654H91.9728V17.6682H100.267V46.0036H110.348V17.6682H118.642V46.0036ZM143.679 14.9508H146.226C145.726 14.649 145.253 14.2879 144.81 13.867L144.764 13.8234L144.72 13.7777C143.207 12.1996 142.464 10.2343 142.464 8.05693C142.464 5.87914 143.21 3.91053 144.765 2.36217C146.341 0.79235 148.329 0 150.555 0C152.749 0 154.698 0.802777 156.252 2.34007C157.856 3.87563 158.647 5.84948 158.647 8.05693C158.647 10.2734 157.851 12.2531 156.275 13.8229L156.252 13.8452L156.229 13.867C155.788 14.2866 155.317 14.648 154.819 14.9508H157.431V55.9827H143.679V14.9508ZM150.555 2.71734C152.033 2.71734 153.296 3.23944 154.345 4.28362C155.394 5.28034 155.918 6.53811 155.918 8.05693C155.918 9.57574 155.394 10.8572 154.345 11.9014C153.296 12.8982 152.033 13.3965 150.555 13.3965C149.03 13.3965 147.743 12.8982 146.694 11.9014C145.693 10.8572 145.193 9.57574 145.193 8.05693C145.193 6.53811 145.693 5.28034 146.694 4.28362C147.743 3.23944 149.03 2.71734 150.555 2.71734ZM146.408 53.2654V17.6682H154.702V53.2654H146.408Z" fill="#47AE34"/>
<path fill-rule="evenodd" clip-rule="evenodd" d="M192.771 38.3856L202.352 53.2652H212.362L199.635 34.4699L210.932 17.668H201.351L192.771 31.1237H189.196V17.668H180.902V53.2652H189.196V38.3856H192.771ZM217.81 55.9825L202.923 34.4645L216.044 14.9506H199.851L191.925 27.3809V14.9506H178.173V55.9825H191.925V42.1063L200.86 55.9825H215.354H217.81ZM218.083 43.4996V55.9825H221.645C224.279 55.7108 226.259 55.7027 228.295 54.8935C230.49 54.0411 232.318 53.1811 233.751 51.2861C235.227 49.3971 236.261 47.0411 236.943 44.3365C237.688 41.5677 238.031 38.2591 238.031 34.4699V27.6472H243.155V55.9825H256.907V14.9506H224.279V34.4699C224.279 36.6863 224.118 38.3967 223.841 39.6559L223.833 39.6958L223.825 39.7358C223.575 41.0616 223.254 41.9375 222.946 42.4791C222.615 43.0104 222.34 43.2439 222.176 43.3444C221.919 43.4765 221.75 43.4996 221.645 43.4996H218.083ZM231.584 49.6343C230.44 51.1531 229.01 51.7013 227.294 52.3658C226.077 52.8503 224.747 53.1582 223.302 53.2894C222.765 53.3381 222.213 53.3625 221.645 53.3625H220.573V46.217H221.645C222.265 46.217 222.885 46.0508 223.504 45.7186C224.172 45.3389 224.768 44.7219 225.292 43.8675C225.816 42.9657 226.221 41.7554 226.507 40.2366C226.841 38.7178 227.008 36.7955 227.008 34.4699V17.668H254.178V53.2652H245.884V24.9298H235.302V34.4699C235.302 38.1245 234.968 41.1859 234.301 43.654C233.681 46.122 232.776 48.1155 231.584 49.6343ZM260.305 14.9506H262.851C262.351 14.6488 261.878 14.2877 261.435 13.8668L261.389 13.8232L261.346 13.7775C259.833 12.1994 259.089 10.2341 259.089 8.05673C259.089 5.87894 259.835 3.91034 261.39 2.36198C262.966 0.792155 264.955 -0.000198364 267.181 -0.000198364C269.375 -0.000198364 271.323 0.80255 272.878 2.33978C274.481 3.87534 275.272 5.84923 275.272 8.05673C275.272 10.2732 274.476 12.2529 272.9 13.8227L272.877 13.845L272.855 13.8668C272.413 14.2864 271.942 14.6478 271.444 14.9506H274.057V55.9825H260.305V14.9506ZM267.181 2.71715C268.658 2.71715 269.922 3.23925 270.97 4.28343C272.019 5.28015 272.543 6.53791 272.543 8.05673C272.543 9.57555 272.019 10.8571 270.97 11.9012C269.922 12.898 268.658 13.3963 267.181 13.3963C265.655 13.3963 264.368 12.898 263.32 11.9012C262.319 10.8571 261.818 9.57555 261.818 8.05673C261.818 6.53791 262.319 5.28015 263.32 4.28343C264.368 3.23925 265.655 2.71715 267.181 2.71715ZM281.741 51.169L281.756 51.1845L281.772 51.1998C283.528 52.9482 285.612 54.2868 287.989 55.2227C290.407 56.1745 293.067 56.6233 295.928 56.6233C300.889 56.6233 305.133 55.3975 308.268 52.5757L308.271 52.5739C311.291 49.8497 313.17 46.2797 313.982 42.025L314.597 38.8008H302.59V31.7764H314.629L313.977 28.5262C313.156 24.4396 311.261 21.0036 308.259 18.3492C305.125 15.5333 300.885 14.3099 295.928 14.3099C293.107 14.3099 290.456 14.7612 288.009 15.7028L287.999 15.7066L287.989 15.7105C285.612 16.6464 283.528 17.985 281.772 19.7334L281.756 19.7492L281.74 19.7652C280.033 21.5215 278.725 23.6193 277.795 26.0151C276.847 28.4577 276.396 31.1216 276.396 33.9715V36.2497C276.396 39.2918 276.81 42.0941 277.692 44.6179L277.7 44.6426L277.71 44.6671C278.638 47.1688 279.974 49.3527 281.741 51.169ZM291.378 41.1029H299.987C299.744 41.7437 299.35 42.289 298.766 42.7693L298.743 42.7882L298.72 42.8077C298.348 43.1281 297.561 43.4996 295.928 43.4996C294.306 43.4996 293.157 43.0837 292.293 42.4046C291.986 42.1443 291.664 41.734 291.378 41.1029ZM288.469 41.1029C288.935 42.6004 289.634 43.7355 290.565 44.5083C291.995 45.6474 293.783 46.217 295.928 46.217C297.93 46.217 299.455 45.7661 300.504 44.8643C301.6 43.9625 302.339 42.8471 302.721 41.5181H311.301C311.119 42.4715 310.878 43.3772 310.58 44.2355C309.703 46.7527 308.323 48.8608 306.439 50.5598C303.96 52.7906 300.456 53.9059 295.928 53.9059C293.354 53.9059 291.042 53.5025 288.992 52.6956C286.943 51.8888 285.179 50.7497 283.701 49.2783C282.224 47.7595 281.08 45.9084 280.269 43.7251C279.507 41.5418 279.125 39.05 279.125 36.2497V33.9715C279.125 31.4085 279.531 29.0828 280.341 26.9945C281.151 24.9061 282.271 23.1262 283.701 21.6549C285.179 20.1835 286.943 19.0444 288.992 18.2375C291.09 17.4307 293.402 17.0272 295.928 17.0272C300.456 17.0272 303.96 18.1426 306.439 20.3734C308.288 22.0066 309.652 23.9961 310.531 26.3417C310.853 27.1999 311.109 28.1056 311.301 29.0591H302.721C302.339 27.7776 301.553 26.7334 300.361 25.9265C299.217 25.1197 297.739 24.7162 295.928 24.7162C293.735 24.7162 291.948 25.2621 290.565 26.3537C289.735 27.0096 289.094 27.9312 288.642 29.1183C288.341 29.9069 288.125 30.8127 287.991 31.8357H299.861V38.3856H287.92C288.036 39.3952 288.219 40.301 288.469 41.1029ZM299.782 29.1183H291.683C291.872 28.8398 292.069 28.6342 292.261 28.4827C293.054 27.8571 294.198 27.4336 295.928 27.4336C297.339 27.4336 298.219 27.7457 298.784 28.144L298.805 28.159L298.826 28.1736C299.256 28.4645 299.564 28.7769 299.782 29.1183ZM317.67 55.9825H331.422V41.4589H341.551V55.9825H355.303V14.9506H341.551V28.7624H331.422V14.9506H317.67V55.9825ZM344.28 38.7415H328.693V53.2652H320.399V17.668H328.693V31.4797H344.28V17.668H352.574V53.2652H344.28V38.7415ZM394.088 14.9506H358.6V27.6472H369.468V55.9825H383.22V27.6472H394.088V14.9506ZM372.197 53.2652V24.9298H361.329V17.668H391.359V24.9298H380.491V53.2652H372.197ZM432.298 17.668H421.859L411.634 36.1785L408.417 42.7996V17.668H400.122V53.2652H410.562L420.786 34.7547L424.004 28.1336V53.2652H432.298V17.668ZM420.245 14.9506L411.146 31.4243V14.9506H397.393V55.9825H412.175L421.275 39.5088V55.9825H435.027V14.9506H420.245ZM263.034 53.2652V17.668H271.328V53.2652H263.034Z" fill="#47AE34"/>
</svg>
