<svg width="488" height="57" viewBox="0 0 488 57" fill="none" xmlns="http://www.w3.org/2000/svg">
<path fill-rule="evenodd" clip-rule="evenodd" d="M334.238 54.9871L334.213 54.9771C331.86 54.0481 329.798 52.7195 328.061 50.9841L328.046 50.969L328.031 50.9536C326.292 49.161 324.97 47.0257 324.048 44.5889L324.039 44.5642L324.03 44.5393C323.154 42.0793 322.742 39.3631 322.742 36.428V34.1667C322.742 31.2315 323.154 28.5153 324.03 26.0553L324.039 26.0304L324.048 26.0057C324.97 23.5698 326.295 21.4498 328.046 19.6963C329.787 17.9057 331.862 16.5653 334.238 15.6782C336.624 14.7403 339.248 14.298 342.068 14.298C347.805 14.298 352.628 16.0835 356.204 19.8821C359.794 23.6955 361.394 28.9727 361.394 35.2973V39.3133L361.276 40.7455L336.903 40.7504C337.201 41.5854 337.573 42.1381 337.951 42.4957C338.724 43.1812 339.976 43.6946 342.068 43.6946C344.371 43.6946 345.462 43.2832 345.89 42.9663C345.929 42.9362 345.968 42.9062 346.005 42.8762H346.29H349.488H358.12H359.251H360.91C360.475 44.671 359.813 46.3601 358.921 47.9334C357.94 49.6622 356.644 51.153 355.056 52.399C353.445 53.6632 351.547 54.6235 349.412 55.3166L349.382 55.3261L349.353 55.3349C347.162 55.9915 344.722 56.2966 342.068 56.2966C339.256 56.2966 336.642 55.8803 334.264 54.9967L334.238 54.9871ZM342.068 46.3917C344.073 46.3917 345.638 46.1189 346.763 45.5734H357.109C356.942 45.9235 356.763 46.2669 356.572 46.6037C355.77 48.017 354.709 49.2418 353.388 50.2782C352.067 51.3147 350.464 52.1391 348.577 52.7515C346.69 53.3168 344.521 53.5995 342.068 53.5995C339.521 53.5995 337.234 53.2226 335.206 52.4688C333.178 51.668 331.432 50.5373 329.97 49.0769C328.508 47.5694 327.376 45.7557 326.574 43.6358C325.82 41.5158 325.442 39.1132 325.442 36.428V34.1667C325.442 31.4814 325.82 29.0788 326.574 26.9589C327.376 24.8389 328.508 23.0488 329.97 21.5884C331.432 20.0808 333.178 18.9502 335.206 18.1964C337.234 17.3956 339.521 16.9951 342.068 16.9951C347.209 16.9951 351.265 18.5733 354.237 21.7297C357.208 24.886 358.694 29.4086 358.694 35.2973V38.0532H333.649C333.728 39.0442 333.872 39.9432 334.083 40.7504C334.502 42.3606 335.183 43.6051 336.125 44.4837C337.54 45.7557 339.521 46.3917 342.068 46.3917ZM346.024 27.991L346.006 27.9768C345.271 27.3685 344.068 26.9001 342.068 26.9001C340.093 26.9001 338.906 27.3797 338.172 28.0124C337.929 28.2215 337.688 28.496 337.464 28.855H346.762C346.532 28.4723 346.284 28.1993 346.041 28.005L346.024 27.991ZM349.729 28.855C350.014 29.6437 350.219 30.5427 350.346 31.5521H333.791C333.94 30.5463 334.167 29.6472 334.471 28.855C334.935 27.6434 335.581 26.6816 336.408 25.9696C337.776 24.7918 339.663 24.203 342.068 24.203C344.474 24.203 346.36 24.7683 347.728 25.8989C348.602 26.5969 349.268 27.5823 349.729 28.855Z" fill="#47AE34"/>
<path fill-rule="evenodd" clip-rule="evenodd" d="M223.967 53.2948L214.302 38.22H210.695V53.2948H202.329V17.2305H210.695V30.8628H214.302L222.957 17.2305H232.623L221.226 34.2529L234.065 53.2948H223.967ZM224.06 34.2483L238.488 55.6468H222.681L213.048 40.6211V55.6468H199.977V14.8785H213.048V28.4505L221.665 14.8785H237.028L224.06 34.2483ZM240.03 43.8021H243.464C243.644 43.8021 243.881 43.7584 244.196 43.5936C244.43 43.4534 244.755 43.1637 245.121 42.572C245.463 41.971 245.8 41.0347 246.057 39.6618L246.064 39.6272L246.071 39.5927C246.359 38.2786 246.522 36.5145 246.522 34.2529V14.8785H278.635V55.6468H265.564V26.9397H259.593V34.2529C259.593 38.072 259.248 41.3876 258.508 44.1485C257.829 46.8534 256.805 49.1869 255.358 51.0461C253.954 52.9105 252.169 54.2865 250.025 55.1223C248.025 55.9206 245.826 56.296 243.464 56.296H240.03V43.8021ZM249.162 52.9342C250.893 52.261 252.336 51.155 253.49 49.6163C254.692 48.0775 255.606 46.0579 256.231 43.5575C256.904 41.057 257.241 37.9555 257.241 34.2529V24.5877H267.916V53.2948H276.283V17.2305H248.874V34.2529C248.874 36.6091 248.705 38.5566 248.369 40.0953C248.08 41.634 247.672 42.8602 247.143 43.7739C246.614 44.6394 246.013 45.2645 245.339 45.6492C244.714 45.9858 244.089 46.1541 243.464 46.1541H242.382V53.944H243.464C243.897 53.944 244.32 53.9299 244.734 53.9018C246.347 53.7923 247.823 53.4698 249.162 52.9342ZM307.393 37.7969V55.6468H320.464V14.8785H306.19L296.373 32.7285V14.8785H283.302V55.6468H297.575L307.393 37.7969ZM309.745 27.8334L306.499 34.5414L296.184 53.2948H285.654V17.2305H294.021V42.6919L297.266 35.984L307.581 17.2305H318.112V53.2948H309.745V27.8334ZM377.165 55.6468H364.094V14.8785H377.165V28.8715H388.185V14.8785H401.256V55.6468H388.185V40.9326H377.165V55.6468ZM374.813 53.2948H366.446V17.2305H374.813V31.2235H390.537V17.2305H398.904V53.2948H390.537V38.5806H374.813V53.2948ZM403.504 14.8785H438.502V26.9397H427.538V55.6468H414.467V26.9397H403.504V14.8785ZM416.819 24.5877V53.2948H425.186V24.5877H436.15V17.2305H405.856V24.5877H416.819ZM440.758 14.8785H453.829V25.6978H456.815C462.573 25.6978 467.294 26.8583 470.43 29.6887C472.23 31.2875 473.486 33.2136 474.226 35.4126V14.8785H487.297V55.6468H474.226V45.9321C473.486 48.1311 472.23 50.0571 470.43 51.656C467.294 54.4864 462.573 55.6468 456.815 55.6468H440.758V14.8785ZM468.86 49.9048C471.409 47.6448 472.683 44.5673 472.683 40.6723C472.683 36.7774 471.409 33.6999 468.86 31.4399C466.36 29.1798 462.345 28.0498 456.815 28.0498H451.477V17.2305H443.11V53.2948H456.815C462.345 53.2948 466.36 52.1648 468.86 49.9048ZM460.619 43.2086L460.638 43.191C461.151 42.7228 461.531 41.9958 461.531 40.6723C461.531 39.3488 461.151 38.6219 460.638 38.1537L460.619 38.1361L460.6 38.1181C460.174 37.7113 459.215 37.2541 457.175 37.2541H453.829V44.0906H457.175C459.215 44.0906 460.174 43.6333 460.6 43.2266L460.619 43.2086ZM451.477 46.4426V34.902H457.175C459.483 34.902 461.166 35.4069 462.224 36.4167C463.33 37.4265 463.883 38.8451 463.883 40.6723C463.883 42.4996 463.33 43.9181 462.224 44.9279C461.166 45.9377 459.483 46.4426 457.175 46.4426H451.477ZM476.578 17.2305V53.2948H484.945V17.2305H476.578Z" fill="#47AE34"/>
<path fill-rule="evenodd" clip-rule="evenodd" d="M13.3595 55.6457H0V0.45166H13.3595V21.1526H32.4578V0.45166H45.8173V55.6457H32.4578V33.5022H13.3595V55.6457ZM11.0074 31.1502H34.8099V53.2937H43.4653V2.80368H34.8099V23.5046H11.0074V2.80368H2.35202V53.2937H11.0074V31.1502ZM49.3545 37.1352L49.3618 37.1172C50.1401 35.2014 51.352 33.592 52.9775 32.3265C54.2098 31.3592 55.6438 30.6055 57.2462 30.04H49.6213L49.7701 27.5479C49.9996 23.7036 51.5828 20.4615 54.4792 17.9706C57.5412 15.3306 61.9537 14.2282 67.2649 14.2282C72.3896 14.2282 76.6718 15.4028 79.6766 18.1672C82.6319 20.8861 84.0426 24.5064 84.0426 28.77V55.6457H73.1486L72.728 53.2272C71.9988 53.7554 71.2149 54.2197 70.3777 54.6191C68.0395 55.7576 65.4206 56.2948 62.5765 56.2948C58.3191 56.2948 54.6878 55.2419 52.0826 52.7609C49.4957 50.2971 48.3233 46.9546 48.3233 43.0514C48.3233 40.9351 48.6491 38.9573 49.3474 37.1533L49.3545 37.1352ZM69.3566 52.5002C70.4374 51.9856 71.408 51.347 72.2684 50.5845C73.0159 49.9221 73.6802 49.1662 74.2614 48.3168L75.1269 53.2937H81.6906V28.77C81.6906 25.0674 80.4884 22.1101 78.0842 19.8981C75.6799 17.6862 72.0734 16.5802 67.2649 16.5802C62.2159 16.5802 58.4652 17.6381 56.0128 19.7539C54.2216 21.2943 53.0443 23.155 52.4808 25.336C52.2879 26.0825 52.1669 26.8665 52.1179 27.688H61.2061C61.3984 26.4378 61.9514 25.428 62.865 24.6586C63.7787 23.8893 65.2453 23.5046 67.2649 23.5046C69.4287 23.5046 70.9675 23.9614 71.8811 24.875C72.8076 25.7089 73.2879 26.9445 73.3217 28.5818C73.323 28.6439 73.3237 28.7067 73.3237 28.77V30.9338H67.2649C64.2355 30.9338 61.6629 31.2223 59.5471 31.7994C57.4795 32.3283 55.7724 33.1217 54.426 34.1796C53.1277 35.1894 52.166 36.4637 51.5409 38.0024C50.9638 39.4931 50.6753 41.1761 50.6753 43.0514C50.6753 46.4655 51.6851 49.1342 53.7047 51.0577C55.7243 52.9811 58.6816 53.9428 62.5765 53.9428C65.1251 53.9428 67.3851 53.462 69.3566 52.5002ZM63.4225 28.7491C64.6335 28.6363 65.9154 28.5818 67.2649 28.5818H70.9691C70.937 27.414 70.6061 26.8919 70.3077 26.6233L70.2617 26.5819L70.218 26.5381C69.9635 26.2837 69.2021 25.8566 67.2649 25.8566C65.4483 25.8566 64.6619 26.2204 64.3801 26.4577C63.929 26.8375 63.6421 27.3219 63.5308 28.0457L63.4225 28.7491ZM66.8172 44.1881C67.7149 43.8112 68.4377 43.3446 69.0173 42.8052C69.6394 42.1778 70.1219 41.4914 70.4789 40.7419C70.6265 40.4319 70.7415 40.1113 70.8232 39.7774H67.2649C64.4924 39.7774 63.1983 40.2694 62.7118 40.6748C62.1456 41.1467 61.827 41.756 61.827 42.7629C61.827 43.539 62.0327 43.9294 62.267 44.1755C62.5399 44.4196 63.0309 44.6665 64.0191 44.6665C65.1005 44.6665 66.0236 44.495 66.8172 44.1881ZM67.2649 37.4254C64.3797 37.4254 62.3601 37.9062 61.2061 38.868C60.052 39.8297 59.475 41.128 59.475 42.7629C59.475 44.0612 59.8597 45.0951 60.6291 45.8644C61.4465 46.6338 62.5765 47.0185 64.0191 47.0185C65.3655 47.0185 66.5917 46.8021 67.6977 46.3693C68.8517 45.8885 69.8375 45.2634 70.6549 44.494C71.4724 43.6765 72.1215 42.7629 72.6024 41.7531C72.9026 41.1226 73.1091 40.4641 73.2219 39.7774C73.2897 39.3642 73.3237 38.9409 73.3237 38.5073V37.4254H67.2649ZM88.3208 14.8774H101.392V43.5845H106.858V14.8774H119.929V43.5845H125.395V14.8774H138.466V55.6457H88.3208V14.8774ZM127.747 45.9366H117.577V17.2294H109.21V45.9366H99.0397V17.2294H90.6728V53.2937H136.114V17.2294H127.747V45.9366ZM167.213 37.7957V55.6457H180.283V14.8774H166.01L156.193 32.7273V14.8774H143.122V55.6457H157.395L167.213 37.7957ZM169.565 27.8323L166.319 34.5402L156.004 53.2937H145.474V17.2294H153.841V42.6908L157.086 35.9828L167.401 17.2294H177.931V53.2937H169.565V27.8323Z" fill="#47AE34"/>
</svg>
