<svg width="360" height="57" viewBox="0 0 360 57" fill="none" xmlns="http://www.w3.org/2000/svg">
<path fill-rule="evenodd" clip-rule="evenodd" d="M14.408 54.9111L14.3854 54.902C11.4014 53.6979 8.80655 51.9825 6.62921 49.752L6.60971 49.732L6.59071 49.7116C4.45537 47.4161 2.83251 44.6456 1.69701 41.4456C0.550604 38.2148 0 34.6051 0 30.6495V26.9537C0 23.0417 0.551642 19.4565 1.69701 16.2286L1.70254 16.2131L1.70828 16.1976C2.89219 13.0062 4.5399 10.2614 6.68043 8.01387L6.68136 8.0129C8.85971 5.72829 11.4605 3.98117 14.4565 2.77226L14.4629 2.76966L14.4694 2.7671C17.5168 1.55864 20.819 0.969238 24.3498 0.969238C27.9139 0.969238 31.2148 1.554 34.2207 2.7632C37.2682 3.92279 39.8838 5.6503 42.0281 7.9521C44.2129 10.2466 45.8631 13.0189 47.001 16.224C48.1501 19.413 48.6996 23.0019 48.6996 26.9537V30.6495C48.6996 34.5657 48.1231 38.1566 46.9261 41.3899C45.7883 44.5904 44.1395 47.359 41.9571 49.6509C39.8146 51.951 37.2025 53.7003 34.1592 54.9071L34.1493 54.9111L34.1394 54.9149C31.1402 56.0724 27.8678 56.6339 24.3498 56.6339C20.7881 56.6339 17.4729 56.0736 14.4307 54.9197L14.408 54.9111ZM44.7474 40.5995C45.8372 37.6619 46.3821 34.3452 46.3821 30.6495V26.9537C46.3821 23.2106 45.8609 19.8939 44.8185 17.0037C43.7761 14.066 42.2836 11.5785 40.341 9.54112C38.4457 7.50373 36.1241 5.96384 33.3759 4.92145C30.6752 3.83168 27.6665 3.2868 24.3498 3.2868C21.0805 3.2868 18.0718 3.83168 15.3237 4.92145C12.623 6.01122 10.3013 7.5748 8.35867 9.61219C6.46342 11.6022 4.9709 14.066 3.88114 17.0037C2.83875 19.9413 2.31756 23.258 2.31756 26.9537V30.6495C2.31756 34.3926 2.83875 37.7329 3.88114 40.6706C4.92353 43.6082 6.39235 46.0957 8.28759 48.1331C10.2302 50.1231 12.5519 51.663 15.2526 52.7528C18.0007 53.7952 21.0331 54.3164 24.3498 54.3164C27.6191 54.3164 30.6041 53.7952 33.3049 52.7528C36.053 51.663 38.3747 50.0994 40.2699 48.062C42.2125 46.0247 43.705 43.5371 44.7474 40.5995ZM34.228 20.9191L34.2181 20.8872C33.6849 19.1645 32.9383 17.8527 32.0308 16.8725L32.0006 16.8399L31.9717 16.8062C31.072 15.7565 29.9982 14.9795 28.7267 14.4559L28.7001 14.4449L28.6737 14.4333C27.3794 13.8623 25.9479 13.5644 24.3498 13.5644C20.9996 13.5644 18.472 14.6655 16.5397 16.7873C14.7094 18.8016 13.5902 22.0485 13.5902 26.9537V30.6495C13.5902 35.4815 14.7212 38.7357 16.6033 40.8077C18.5988 42.9524 21.1172 44.0388 24.3498 44.0388C27.6531 44.0388 30.1626 42.9602 32.0959 40.8792C33.9752 38.8106 35.1095 35.5358 35.1095 30.6495V26.9537C35.1095 24.5897 34.8024 22.6013 34.2388 20.9508L34.228 20.9191ZM14.8973 42.3763C12.4808 39.7229 11.2726 35.814 11.2726 30.6495V26.9537C11.2726 21.7418 12.4571 17.8328 14.8262 15.2269C17.2426 12.5735 20.4172 11.2468 24.3498 11.2468C26.2451 11.2468 27.9982 11.6022 29.6091 12.3129C31.2201 12.9763 32.5942 13.9713 33.7313 15.2979C34.9158 16.5772 35.8161 18.2119 36.432 20.2019C37.0954 22.1445 37.427 24.3951 37.427 26.9537V30.6495C37.427 35.8614 36.2188 39.794 33.8024 42.4474C31.3859 45.0533 28.2351 46.3563 24.3498 46.3563C20.5119 46.3563 17.3611 45.0296 14.8973 42.3763ZM55.7743 52.0621L55.7671 52.0543C52.8021 48.8567 51.5243 44.2792 51.5243 38.7516V15.8233H64.4037V38.7516C64.4037 41.0279 64.9435 42.3318 65.6323 43.0736C66.3796 43.8784 67.3503 44.323 68.7669 44.323C70.7237 44.323 72.0157 43.7806 72.913 42.9132L72.9266 42.9L72.9405 42.8871C73.8972 41.9921 74.4705 40.7854 74.5516 39.0558V15.8233H87.431V55.9943H76.6768L76.3822 54.1945C75.7333 54.6071 75.05 54.974 74.333 55.2947L74.3096 55.3052L74.2859 55.3152C72.1637 56.2087 69.8383 56.6339 67.3455 56.6339C62.6661 56.6339 58.7165 55.1773 55.7816 52.0698L55.7743 52.0621ZM75.9684 51.6653C76.7086 51.1103 77.3879 50.4778 78.0063 49.7678L78.6459 53.6767H85.1134V18.1408H76.8691V39.107C76.7744 41.3813 75.9926 43.2055 74.5238 44.5795C73.1023 45.9536 71.1834 46.6406 68.7669 46.6406C66.7769 46.6406 65.166 45.9773 63.934 44.6506C62.7021 43.3239 62.0862 41.3576 62.0862 38.7516V18.1408H53.8419V38.7516C53.8419 43.9636 55.0501 47.8725 57.4665 50.4785C59.8829 53.0371 63.1759 54.3164 67.3455 54.3164C69.5724 54.3164 71.5861 53.9373 73.3866 53.1792C74.3167 52.7631 75.1773 52.2585 75.9684 51.6653ZM92.0658 15.8233H102.826L103.115 17.6224C103.749 17.2253 104.42 16.8773 105.126 16.5793C107.292 15.6375 109.644 15.1836 112.151 15.1836H118.022V27.4945H112.151C109.168 27.4945 107.433 28.149 106.474 29.0122C105.51 29.9223 104.945 31.1848 104.945 33.0659V55.9943H92.0658V15.8233ZM104.902 27.3091C106.466 25.8876 108.882 25.1769 112.151 25.1769H115.705V17.5012H112.151C109.924 17.5012 107.887 17.9039 106.039 18.7094C105.127 19.0934 104.288 19.5748 103.522 20.1534C102.775 20.7169 102.098 21.3727 101.49 22.1208L100.851 18.1408H94.3833V53.6767H102.628V33.0659C102.628 30.6494 103.386 28.7305 104.902 27.3091Z" fill="#47AE34"/>
<path fill-rule="evenodd" clip-rule="evenodd" d="M227.662 55.4152L227.637 55.4053C225.319 54.49 223.287 53.1808 221.575 51.4709L221.56 51.4559L221.545 51.4408C219.832 49.6744 218.529 47.5704 217.621 45.1694L217.612 45.145L217.603 45.1205C216.74 42.6965 216.334 40.0201 216.334 37.128V34.8998C216.334 32.0077 216.74 29.3313 217.603 26.9073L217.612 26.8828L217.621 26.8584C218.529 24.4582 219.835 22.3693 221.56 20.6415C223.276 18.8771 225.32 17.5564 227.662 16.6822C230.012 15.758 232.598 15.3223 235.377 15.3223C241.029 15.3223 245.782 17.0816 249.306 20.8245C252.843 24.582 254.42 29.7819 254.42 36.0139V39.9711L254.303 41.3823L230.287 41.3871C230.581 42.2098 230.948 42.7544 231.32 43.1069C232.082 43.7823 233.316 44.2881 235.377 44.2881C237.646 44.2881 238.721 43.8828 239.143 43.5705C239.182 43.5409 239.219 43.5113 239.256 43.4818H239.536H242.688H251.193H252.308H253.943C253.514 45.2503 252.862 46.9146 251.983 48.4649C251.016 50.1683 249.739 51.6372 248.175 52.8651C246.587 54.1108 244.716 55.0569 242.613 55.7399L242.584 55.7492L242.555 55.7579C240.396 56.4049 237.992 56.7055 235.377 56.7055C232.605 56.7055 230.03 56.2953 227.687 55.4246L227.662 55.4152ZM235.377 46.9457C237.353 46.9457 238.895 46.677 240.003 46.1394H250.197C250.032 46.4844 249.856 46.8228 249.668 47.1546C248.878 48.5472 247.832 49.7541 246.531 50.7753C245.229 51.7966 243.649 52.6089 241.79 53.2124C239.931 53.7694 237.794 54.0479 235.377 54.0479C232.867 54.0479 230.613 53.6766 228.615 52.9339C226.616 52.1447 224.897 51.0307 223.456 49.5916C222.016 48.1062 220.9 46.3191 220.11 44.2302C219.367 42.1413 218.995 39.7739 218.995 37.128V34.8998C218.995 32.2539 219.367 29.8865 220.11 27.7976C220.9 25.7087 222.016 23.9448 223.456 22.5058C224.897 21.0204 226.616 19.9063 228.615 19.1636C230.613 18.3744 232.867 17.9799 235.377 17.9799C240.443 17.9799 244.439 19.5349 247.367 22.645C250.295 25.7552 251.759 30.2114 251.759 36.0139V38.7295H227.081C227.159 39.7059 227.301 40.5918 227.508 41.3871C227.921 42.9737 228.592 44.1999 229.521 45.0657C230.915 46.3191 232.867 46.9457 235.377 46.9457ZM239.274 28.8147L239.257 28.8006C238.532 28.2012 237.347 27.7397 235.377 27.7397C233.43 27.7397 232.261 28.2122 231.537 28.8357C231.298 29.0417 231.061 29.3122 230.841 29.6659H240.002C239.775 29.2889 239.531 29.0199 239.292 28.8284L239.274 28.8147ZM242.925 29.6659C243.206 30.4431 243.409 31.3289 243.533 32.3235H227.221C227.368 31.3324 227.591 30.4466 227.891 29.6659C228.349 28.4722 228.985 27.5245 229.8 26.8228C231.148 25.6623 233.007 25.0821 235.377 25.0821C237.747 25.0821 239.606 25.6391 240.954 26.7532C241.815 27.441 242.472 28.4119 242.925 29.6659Z" fill="#47AE34"/>
<path fill-rule="evenodd" clip-rule="evenodd" d="M151.574 55.4175L151.544 55.4057C149.229 54.4901 147.203 53.1829 145.498 51.4778L145.472 51.4513L145.446 51.4241C143.798 49.6657 142.531 47.5742 141.629 45.1855L141.621 45.1643L141.613 45.1429C140.751 42.7185 140.342 40.0326 140.342 37.1171L140.342 34.8428C140.342 31.9696 140.753 29.3085 141.613 26.8882L141.621 26.8668L141.629 26.8456C142.537 24.442 143.84 22.3581 145.556 20.6374C147.261 18.8821 149.289 17.5449 151.615 16.6254L151.624 16.622L151.632 16.6188C154.014 15.6984 156.6 15.2548 159.361 15.2548C164.226 15.2548 168.334 16.4603 171.355 19.1862C174.27 21.7745 176.114 25.126 176.914 29.129L177.469 31.9011H164.099L163.607 30.2419C163.391 29.5146 162.958 28.9013 162.18 28.3728C161.469 27.8887 160.461 27.5657 159.006 27.5657C158.252 27.5657 157.55 27.7013 156.882 27.9685L156.852 27.9804L156.822 27.9914C156.324 28.1749 155.83 28.5034 155.342 29.0558L155.319 29.082L155.295 29.1075C154.86 29.5716 154.443 30.2533 154.098 31.2392C153.818 32.1256 153.648 33.3091 153.648 34.8428V37.1171C153.648 38.5774 153.836 39.7513 154.156 40.6812C154.493 41.6154 154.915 42.332 155.391 42.8781C155.881 43.3951 156.407 43.7582 156.973 43.9994C157.647 44.2664 158.32 44.3943 159.006 44.3943C160.747 44.3943 161.651 44.0045 162.111 43.6075L162.13 43.5909L162.15 43.5747C162.888 42.9652 163.354 42.2489 163.601 41.3844L164.081 39.7035H177.441L176.919 42.4534C176.126 46.6273 174.296 50.1104 171.365 52.765L171.363 52.7666C168.342 55.4975 164.23 56.7051 159.361 56.7051C156.574 56.7051 153.979 56.2918 151.604 55.4285L151.574 55.4175ZM153.676 44.4375C152.965 43.632 152.396 42.6371 151.97 41.4525C151.544 40.2206 151.33 38.7755 151.33 37.1171V34.8428C151.33 33.1371 151.52 31.692 151.899 30.5075C152.325 29.2755 152.894 28.2805 153.605 27.5224C154.315 26.717 155.121 26.1484 156.021 25.8167C156.969 25.4377 157.964 25.2481 159.006 25.2481C160.807 25.2481 162.299 25.6509 163.484 26.4564C164.668 27.2618 165.45 28.3042 165.829 29.5835H174.642C174.481 28.7768 174.273 28.0043 174.019 27.266C173.153 24.7519 171.75 22.6341 169.809 20.9128C167.345 18.6858 163.863 17.5724 159.361 17.5724C156.85 17.5724 154.552 17.9751 152.468 18.7806C150.43 19.5861 148.677 20.7469 147.208 22.2631C145.739 23.7319 144.602 25.5324 143.797 27.6646C143.039 29.7967 142.66 32.1895 142.66 34.8428V37.1171C142.66 39.8179 143.039 42.2343 143.797 44.3665C144.602 46.4986 145.716 48.3228 147.137 49.839C148.606 51.3078 150.359 52.445 152.396 53.2504C154.481 54.0085 156.803 54.3876 159.361 54.3876C163.863 54.3876 167.345 53.2741 169.809 51.0472C171.779 49.263 173.195 47.0268 174.057 44.3386C174.294 43.6002 174.489 42.8277 174.642 42.0211H165.829C165.45 43.3478 164.716 44.4612 163.626 45.3615C162.583 46.2617 161.044 46.7118 159.006 46.7118C158.011 46.7118 157.04 46.5223 156.092 46.1433C155.192 45.7642 154.386 45.1956 153.676 44.4375ZM182.6 52.4018L182.581 52.3823C180.043 49.7839 178.937 46.2105 178.937 42.0211V1.6801H191.816V41.1682C191.816 42.7513 192.172 43.3954 192.392 43.628C192.604 43.8525 193.113 44.181 194.402 44.181H198.497V56.0655H192.91C188.758 56.0655 185.213 54.9538 182.62 52.4208L182.6 52.4018ZM200.91 15.8945H204.868C203.778 15.5497 202.783 14.9635 201.912 14.1316L201.873 14.0944L201.836 14.0554C200.406 12.5577 199.702 10.6952 199.702 8.61733C199.702 6.53911 200.408 4.67725 201.873 3.21176C203.364 1.72107 205.239 0.969379 207.35 0.969379C209.427 0.969379 211.265 1.72995 212.737 3.19281C214.25 4.64735 214.998 6.51382 214.998 8.61733C214.998 10.7286 214.246 12.6033 212.756 14.094L212.737 14.113L212.717 14.1316C211.851 14.9586 210.865 15.5477 209.786 15.8945H213.79V56.0655H200.91V15.8945ZM211.117 4.85052C210.075 3.80813 208.819 3.28694 207.35 3.28694C205.834 3.28694 204.555 3.80813 203.512 4.85052C202.517 5.84553 202.02 7.10113 202.02 8.61733C202.02 10.1335 202.517 11.4128 203.512 12.4552C204.555 13.4502 205.834 13.9477 207.35 13.9477C208.819 13.9477 210.075 13.4502 211.117 12.4552C212.159 11.4128 212.68 10.1335 212.68 8.61733C212.68 7.10113 212.159 5.84553 211.117 4.85052ZM257.121 15.8945H267.881L268.178 17.7423C270.829 16.0664 273.989 15.2548 277.562 15.2548C282.401 15.2548 286.459 16.7176 289.41 19.8897C292.438 23.0451 293.738 27.6127 293.738 33.1371V56.0655H280.859V33.1371C280.859 30.8814 280.306 29.5901 279.589 28.8469L279.574 28.8311L279.559 28.8151C278.854 28.0557 277.818 27.5657 276.14 27.5657C274.017 27.5657 272.588 28.1237 271.598 29.0144C270.649 29.9081 270.081 31.1114 270 32.8327V56.0655H257.121V15.8945ZM267.683 32.7818C267.778 30.5075 268.559 28.6833 270.028 27.3092C271.544 25.9352 273.582 25.2481 276.14 25.2481C278.32 25.2481 280.026 25.9115 281.258 27.2381C282.537 28.5648 283.177 30.5312 283.177 33.1371V53.7479H291.421V33.1371C291.421 27.9252 290.189 24.0399 287.725 21.4813C285.309 18.8754 281.921 17.5724 277.562 17.5724C273.973 17.5724 270.981 18.4736 268.585 20.2759C267.849 20.8296 267.169 21.4683 266.546 22.192L265.906 18.212H259.439V53.7479H267.683V32.7818ZM294.896 15.8945H301.292V5.94441H314.172V15.8945H322.984V27.7789H314.172V41.1682C314.172 42.7024 314.506 43.3547 314.726 43.6053C315.012 43.8756 315.588 44.181 316.829 44.181H323.695V56.0655H315.336C311.147 56.0655 307.574 54.9588 304.975 52.4208L304.956 52.4018L304.937 52.3823C302.399 49.7839 301.292 46.2105 301.292 42.0211V27.7789H294.896V15.8945ZM303.61 25.4614V42.0211C303.61 45.8116 304.605 48.7255 306.595 50.7629C308.632 52.7529 311.546 53.7479 315.336 53.7479H321.378V46.4986H316.829C315.171 46.4986 313.915 46.0722 313.062 45.2193C312.257 44.3665 311.854 43.0161 311.854 41.1682V25.4614H320.667V18.212H311.854V8.26197H303.61V18.212H297.213V25.4614H303.61ZM329.563 52.8957L329.545 52.879C326.721 50.2276 325.193 46.5964 324.774 42.2434L324.529 39.7035H334.853C333.918 39.4087 333.012 39.0568 332.138 38.647L332.111 38.6346L332.085 38.6214C330.284 37.7206 328.743 36.4973 327.487 34.9564L327.458 34.9203L327.43 34.883C326.035 33.0227 325.474 30.6474 325.474 28.0199C325.474 26.2431 325.82 24.5467 326.526 22.9565C327.26 21.3068 328.384 19.9192 329.848 18.8011C331.3 17.6452 333.037 16.7954 335.001 16.2093C337.076 15.5568 339.423 15.2548 342.006 15.2548C346.87 15.2548 350.95 16.3906 353.815 19.0705C356.596 21.6243 358.105 25.1388 358.526 29.3529L358.781 31.9011H351.437C351.853 32.0868 352.261 32.286 352.663 32.4988C354.513 33.4292 356.049 34.7668 357.252 36.4785C358.665 38.4177 359.248 40.8645 359.248 43.5847C359.248 45.4499 358.881 47.2205 358.123 48.865C357.389 50.5633 356.24 51.9948 354.736 53.1554C353.264 54.3284 351.441 55.1989 349.352 55.8256L349.334 55.8311L349.316 55.8363C347.205 56.4317 344.754 56.7051 342.006 56.7051C336.846 56.7051 332.553 55.5862 329.581 52.912L329.563 52.8957ZM353.306 51.3315C354.538 50.3839 355.438 49.2467 356.007 47.92C356.623 46.5934 356.931 45.1482 356.931 43.5847C356.931 41.1682 356.41 39.2493 355.367 37.8278C354.372 36.4064 353.117 35.3166 351.6 34.5585C350.084 33.7531 348.45 33.1608 346.696 32.7818C344.943 32.4501 343.309 32.1184 341.792 31.7867C340.276 31.4077 338.997 30.9576 337.955 30.4364C336.96 29.8678 336.462 28.9913 336.462 27.8067C336.462 26.8591 336.865 26.0536 337.67 25.3903C338.523 24.7269 339.968 24.3953 342.006 24.3953C343.759 24.3953 345.014 24.7743 345.772 25.5324C346.578 26.2905 347.17 27.6409 347.549 29.5835H356.22C356.139 28.7719 356.014 27.9994 355.846 27.266C355.229 24.5741 354.027 22.409 352.24 20.7706C349.966 18.6385 346.554 17.5724 342.006 17.5724C339.589 17.5724 337.481 17.8567 335.68 18.4252C333.927 18.9464 332.458 19.6808 331.274 20.6285C330.089 21.5287 329.213 22.6185 328.644 23.8978C328.076 25.1771 327.791 26.5511 327.791 28.0199C327.791 30.3416 328.289 32.1658 329.284 33.4925C330.326 34.7718 331.605 35.7905 333.122 36.5485C334.638 37.2593 336.273 37.7805 338.026 38.1121C339.779 38.4912 341.413 38.8939 342.93 39.3204C344.446 39.6994 345.701 40.2206 346.696 40.8839C347.739 41.5473 348.26 42.5186 348.26 43.7979C348.26 44.935 347.81 45.859 346.91 46.5697C346.057 47.233 344.422 47.5647 342.006 47.5647C339.968 47.5647 338.499 47.1619 337.599 46.3565C336.746 45.5036 336.13 44.0585 335.751 42.0211H327.081C327.159 42.8308 327.278 43.6033 327.438 44.3386C328.057 47.175 329.288 49.4586 331.132 51.1894C333.501 53.3215 337.125 54.3876 342.006 54.3876C344.612 54.3876 346.839 54.127 348.686 53.6058C350.582 53.0372 352.122 52.2791 353.306 51.3315ZM339.19 44.6673C339.493 44.9058 340.271 45.2471 342.006 45.2471C343.122 45.2471 343.968 45.1694 344.583 45.0447C345.204 44.9187 345.441 44.774 345.483 44.7428C345.825 44.4701 345.942 44.2146 345.942 43.7979C345.942 43.277 345.798 43.0592 345.452 42.8392L345.431 42.8259L345.411 42.8123C344.693 42.3337 343.701 41.902 342.368 41.5687L342.335 41.5605L342.302 41.5513C340.917 41.1617 339.421 40.7904 337.814 40.438L338.03 41.5972C338.363 43.3862 338.835 44.2781 339.19 44.6673ZM339.059 28.3972C339.893 28.8062 340.97 29.1905 342.322 29.5301C343.266 29.7364 344.258 29.943 345.299 30.15L345.275 30.0273C344.924 28.231 344.452 27.4723 344.184 27.2201L344.159 27.196L344.134 27.1712C344.017 27.0544 343.516 26.7128 342.006 26.7128C340.144 26.7128 339.356 27.0316 339.113 27.2048C338.809 27.4638 338.78 27.633 338.78 27.8067C338.78 28.0687 338.832 28.1758 338.851 28.2086C338.866 28.235 338.909 28.3041 339.059 28.3972ZM184.239 50.7629C186.276 52.7529 189.167 53.7479 192.91 53.7479H196.179V46.4986H194.402C192.744 46.4986 191.512 46.0722 190.707 45.2193C189.901 44.3665 189.498 43.0161 189.498 41.1682V3.99766H181.254V42.0211C181.254 45.8116 182.249 48.7255 184.239 50.7629ZM203.228 18.212V53.7479H211.472V18.212H203.228Z" fill="#47AE34"/>
</svg>
