<svg width="49" height="49" viewBox="0 0 49 49" fill="none" xmlns="http://www.w3.org/2000/svg">
<path d="M10.7927 8.37487L10.9758 8.20214C11.3776 7.823 11.8599 7.52916 12.3907 7.3398C12.9214 7.15044 13.4885 7.0698 14.0546 7.10312C14.6206 7.13644 15.1728 7.28297 15.6747 7.5332C16.1765 7.78343 16.6166 8.13173 16.9656 8.5553L20.9794 13.422L20.9794 13.422C21.7355 14.3391 22.003 15.535 21.7037 16.6643L20.4798 21.2862C20.4212 21.5079 20.4244 21.7401 20.489 21.9604C20.5537 22.1807 20.6779 22.3822 20.8501 22.545L26.3472 27.7303C26.52 27.8931 26.7351 28.0115 26.9718 28.0732C27.2085 28.1349 27.4583 28.1377 27.6965 28.0814L27.6966 28.0814L32.5942 26.927C33.1822 26.7883 33.796 26.7775 34.3891 26.8955C34.9822 27.0134 35.5395 27.2571 36.0189 27.6085L36.0189 27.6085L41.1783 31.3947C43.0826 32.7923 43.2587 35.4511 41.5524 37.0585L10.7927 8.37487ZM10.7927 8.37487H10.7949L8.66456 10.3844C6.98422 11.9694 6.24058 14.3469 7.0666 16.5638L7.06662 16.5639C9.14973 22.1469 12.5384 27.2155 16.9808 31.3939C21.4111 35.5847 26.7844 38.7804 32.7019 40.7444C35.0466 41.5231 37.559 40.8254 39.239 39.2407L41.5524 37.0585L10.7927 8.37487ZM14.9274 10.0627L14.9274 10.0627L18.9411 14.9315C18.9411 14.9315 18.9412 14.9315 18.9412 14.9316C19.0722 15.0909 19.1628 15.2758 19.2066 15.4722C19.2503 15.6685 19.2463 15.8717 19.1947 16.0664C19.1947 16.0664 19.1947 16.0664 19.1947 16.0664L17.9686 20.6884L17.9686 20.6884C17.8007 21.3232 17.81 21.9883 17.9955 22.6186C18.181 23.249 18.5362 23.8226 19.0259 24.2838L24.5208 29.4692L24.5208 29.4692C25.01 29.9307 25.617 30.2643 26.2825 30.4382C26.948 30.6121 27.6498 30.6205 28.3197 30.4625C28.3197 30.4625 28.3197 30.4625 28.3197 30.4625L33.2195 29.3081L33.2195 29.3081C33.4285 29.2588 33.6466 29.2549 33.8574 29.2967C34.0681 29.3386 34.2657 29.4249 34.4352 29.5489L39.5967 33.3351L39.6503 33.262L39.5967 33.3351C39.7554 33.4514 39.8855 33.5979 39.9789 33.7646C40.0722 33.9313 40.1268 34.1145 40.1391 34.302C40.1514 34.4896 40.1214 34.6776 40.0507 34.8536C39.98 35.0297 39.8702 35.19 39.7283 35.3238L39.7282 35.3238L37.4148 37.506C36.3565 38.5022 34.8618 38.8664 33.5548 38.4336C28.0027 36.5898 22.9624 33.5908 18.8074 29.6594L18.8072 29.6592C14.6394 25.74 11.4609 20.9863 9.50703 15.7511C9.05096 14.5256 9.43308 13.1211 10.4889 12.1232L12.8023 9.93888L12.8023 9.93887C12.9441 9.80495 13.1148 9.7007 13.3033 9.63336C13.4918 9.56601 13.6936 9.53722 13.895 9.54902C14.0965 9.56081 14.2928 9.61291 14.4708 9.70163C14.6489 9.79034 14.8044 9.91355 14.9274 10.0627Z" fill="#47AE34" stroke="#47AE34" stroke-width="0.2"/>
</svg>
