<svg width="358" height="88" viewBox="0 0 358 88" fill="none" xmlns="http://www.w3.org/2000/svg">
<path fill-rule="evenodd" clip-rule="evenodd" d="M17.7172 69.9734H0V0H57.4223V69.9734H39.7052V16.4345H17.7172V69.9734ZM14.2729 12.9943H43.1494V66.5332H53.9781V3.44019H3.44424V66.5332H14.2729V12.9943ZM76.4818 24.2831C75.3711 25.2067 74.3869 26.311 73.5294 27.5958L72.5367 21.4668H64.325V84.5598H74.7927V62.0266C75.8078 63.1769 76.9558 64.1407 78.2369 64.9177C80.904 66.5355 84.1475 67.3444 87.9676 67.3444C90.5544 67.3444 92.9307 66.8938 95.0965 65.9924C97.2622 65.031 99.1272 63.6189 100.691 61.7562C102.316 59.8934 103.579 57.6101 104.481 54.9061C105.384 52.2021 105.835 49.0474 105.835 45.4421V42.5579C105.835 38.9526 105.384 35.7979 104.481 33.0939C103.579 30.3298 102.346 28.0465 100.782 26.2438C99.2174 24.3811 97.3224 22.999 95.0965 22.0977C92.9307 21.1363 90.5544 20.6556 87.9676 20.6556C84.7792 20.6556 81.9517 21.2264 79.4851 22.3681C78.3981 22.8838 77.397 23.5222 76.4818 24.2831ZM75.8635 20.4648L75.4686 18.0266H60.8807V88H78.2369V68.8123C81.1076 70.146 84.3794 70.7846 87.9676 70.7846C90.9624 70.7846 93.7945 70.2611 96.4212 69.168L96.4584 69.1525L96.4953 69.1361C99.1436 67.9605 101.422 66.2323 103.309 63.9916C105.264 61.7426 106.728 59.0523 107.749 55.994C108.795 52.8604 109.279 49.3239 109.279 45.4421V42.5579C109.279 38.681 108.796 35.1483 107.753 32.0177C106.742 28.9241 105.314 26.2219 103.402 24.0116C101.497 21.7495 99.1666 20.0435 96.4433 18.931C93.8128 17.7724 90.972 17.2154 87.9676 17.2154C84.3647 17.2154 81.0291 17.8618 78.037 19.2468L78.0221 19.2537L78.0073 19.2607C77.2584 19.616 76.5437 20.0178 75.8635 20.4648ZM84.8092 54.1699C87.264 54.1699 88.7096 53.4595 89.6567 52.4157C90.5556 51.425 91.3815 49.3702 91.3815 45.4421V42.5579C91.3815 38.8169 90.5538 36.7593 89.5701 35.6784C88.5147 34.5189 87.0606 33.8301 84.8092 33.8301C82.8196 33.8301 81.3784 34.467 80.2106 35.6986C79.161 36.864 78.3483 38.8222 78.2369 42.0737V45.4421C78.2369 48.8768 79.0376 50.9656 80.1352 52.2267C81.3813 53.5312 82.8605 54.1699 84.8092 54.1699ZM77.5901 54.5456C75.7252 52.4425 74.7927 49.408 74.7927 45.4421V42.0171C74.913 38.2315 75.8756 35.3472 77.6803 33.3643C79.5453 31.3814 81.9216 30.3899 84.8092 30.3899C87.8774 30.3899 90.3138 31.3814 92.1186 33.3643C93.9234 35.3472 94.8258 38.4118 94.8258 42.5579V45.4421C94.8258 49.7084 93.9534 52.803 92.2088 54.7258C90.4642 56.6487 87.9977 57.6101 84.8092 57.6101C81.9216 57.6101 79.5152 56.5886 77.5901 54.5456ZM118.331 64.0085L118.322 63.9989L118.312 63.9893C113.724 59.3332 111.638 52.9905 111.638 45.4421V42.5579C111.638 38.8141 112.163 35.3496 113.28 32.2118L113.292 32.1801L113.304 32.1486C114.482 29.0326 116.179 26.322 118.422 24.0816C120.707 21.7989 123.416 20.0938 126.506 18.9665C129.607 17.775 133.036 17.2154 136.739 17.2154C144.203 17.2154 150.473 19.3455 155.067 24.0018C159.719 28.6545 161.841 35.0002 161.841 42.5579V45.4421C161.841 49.1948 161.282 52.6709 160.096 55.8196C158.972 58.9647 157.266 61.7121 154.966 64.0085C152.723 66.2489 150.01 67.9434 146.89 69.1205L146.87 69.1281L146.85 69.1354C143.766 70.2554 140.381 70.7846 136.739 70.7846C129.268 70.7846 122.979 68.651 118.331 64.0085ZM156.862 54.6357C157.885 51.9317 158.397 48.8672 158.397 45.4421V42.5579C158.397 35.6477 156.471 30.2698 152.621 26.4241C148.831 22.5784 143.537 20.6556 136.739 20.6556C133.37 20.6556 130.362 21.1663 127.715 22.1878C125.068 23.1493 122.782 24.5914 120.857 26.5142C118.992 28.377 117.548 30.6603 116.526 33.3643C115.563 36.0683 115.082 39.1328 115.082 42.5579V45.4421C115.082 52.3523 116.977 57.7303 120.767 61.5759C124.617 65.4216 129.941 67.3444 136.739 67.3444C140.048 67.3444 143.026 66.8637 145.673 65.9023C148.38 64.8808 150.666 63.4387 152.531 61.5759C154.456 59.6531 155.9 57.3397 156.862 54.6357ZM142.06 52.3008L142.08 52.2803C143.096 51.1993 143.943 49.1592 143.943 45.4421V42.5579C143.943 38.9421 143.086 36.9397 142.027 35.8493L141.99 35.8114L141.955 35.7723C140.869 34.5832 139.285 33.8301 136.739 33.8301C134.016 33.8301 132.383 34.5894 131.328 35.6987C130.353 36.7849 129.535 38.8401 129.535 42.5579V45.4421C129.535 49.0331 130.352 51.1079 131.399 52.2796C132.548 53.4425 134.193 54.1699 136.739 54.1699C139.485 54.1699 141.06 53.3994 142.041 52.3216L142.06 52.3008ZM128.798 33.3643C130.663 31.3814 133.31 30.3899 136.739 30.3899C140.048 30.3899 142.635 31.4114 144.5 33.4545C146.425 35.4374 147.387 38.4719 147.387 42.5579V45.4421C147.387 49.5882 146.455 52.6528 144.59 54.6357C142.785 56.6186 140.168 57.6101 136.739 57.6101C133.43 57.6101 130.813 56.6186 128.888 54.6357C127.023 52.5927 126.091 49.5282 126.091 45.4421V42.5579C126.091 38.4118 126.993 35.3472 128.798 33.3643ZM178.195 69.1144L178.162 69.1015C175.162 67.9167 172.532 66.222 170.316 64.0085L170.296 63.9892L170.277 63.9696C168.06 61.6831 166.373 58.9596 165.198 55.8515L165.186 55.8199L165.174 55.7882C164.057 52.6504 163.531 49.1859 163.531 45.4421V42.5579C163.531 38.8141 164.057 35.3496 165.174 32.2118L165.186 32.1801L165.198 32.1486C166.373 29.0416 168.063 26.3376 170.296 24.1009C172.517 21.817 175.164 20.1074 178.195 18.9758C181.238 17.7795 184.584 17.2154 188.182 17.2154C195.499 17.2154 201.651 19.4928 206.212 24.3379C210.791 29.2018 212.832 35.9329 212.832 44V49.1224L212.682 50.9492L181.594 50.9554C181.973 52.0204 182.449 52.7254 182.93 53.1816C183.916 54.0559 185.514 54.7107 188.182 54.7107C191.119 54.7107 192.511 54.1861 193.056 53.7817C193.107 53.7434 193.156 53.7051 193.204 53.6669H193.566H197.645H208.655H210.098H212.215C211.66 55.9562 210.816 58.1106 209.677 60.1173C208.426 62.3224 206.773 64.2239 204.748 65.8133C202.693 67.4258 200.272 68.6506 197.548 69.5346L197.511 69.5467L197.474 69.5579C194.679 70.3954 191.567 70.7846 188.182 70.7846C184.594 70.7846 181.26 70.2536 178.228 69.1265L178.195 69.1144ZM188.182 58.1509C190.739 58.1509 192.735 57.803 194.171 57.1071H207.366C207.153 57.5537 206.925 57.9917 206.681 58.4213C205.658 60.2239 204.305 61.7862 202.62 63.1082C200.936 64.4301 198.89 65.4817 196.484 66.2628C194.077 66.9839 191.31 67.3444 188.182 67.3444C184.933 67.3444 182.016 66.8637 179.429 65.9023C176.842 64.8808 174.616 63.4387 172.751 61.5759C170.886 59.6531 169.442 57.3397 168.42 54.6357C167.457 51.9317 166.976 48.8672 166.976 45.4421V42.5579C166.976 39.1328 167.457 36.0683 168.42 33.3643C169.442 30.6603 170.886 28.377 172.751 26.5142C174.616 24.5914 176.842 23.1493 179.429 22.1878C182.016 21.1663 184.933 20.6556 188.182 20.6556C194.739 20.6556 199.913 22.6685 203.703 26.6945C207.493 30.7204 209.388 36.4889 209.388 44V47.5152H177.443C177.544 48.7791 177.728 49.9259 177.996 50.9554C178.531 53.0093 179.4 54.5966 180.602 55.7173C182.407 57.3397 184.933 58.1509 188.182 58.1509ZM215.185 18.0266V50.9492V69.9734H232.541V52.4059L243.818 69.9734H264.81L246.421 42.7314L262.451 18.0266H256.94H242.544L232.541 33.7634V18.0266H215.185ZM263.087 18.0266V34.1005H276.803V69.9734H294.159V34.1005H307.876V18.0266H263.087ZM193.227 34.6808L193.205 34.6626C192.266 33.8868 190.733 33.2893 188.182 33.2893C185.662 33.2893 184.149 33.901 183.212 34.7081C182.902 34.9748 182.595 35.3249 182.31 35.7828H194.169C193.875 35.2947 193.56 34.9465 193.249 34.6987L193.227 34.6808ZM197.953 35.7828C198.316 36.7888 198.579 37.9355 198.74 39.223H177.624C177.814 37.94 178.103 36.7933 178.491 35.7828C179.084 34.2375 179.908 33.0107 180.963 32.1025C182.707 30.6002 185.114 29.8491 188.182 29.8491C191.25 29.8491 193.656 30.5702 195.401 32.0123C196.515 32.9027 197.366 34.1595 197.953 35.7828ZM258.334 66.5332H245.701L233.609 47.6955H229.097V66.5332H218.629V21.4668H229.097V38.5019H233.609L244.437 21.4668H256.529L242.272 42.7381L258.334 66.5332ZM280.247 30.6603V66.5332H290.715V30.6603H304.431V21.4668H266.531V30.6603H280.247ZM341.381 21.4668H354.556V66.5332H344.088V34.7163L340.027 43.0987L327.123 66.5332H313.948V21.4668H324.416V53.2837L328.477 44.9013L341.381 21.4668ZM327.86 38.8824L339.344 18.0266H358V69.9734H340.644V49.1175L329.16 69.9734H310.504V18.0266H327.86V38.8824Z" fill="#47AE34"/>
</svg>
