<svg width="29" height="26" viewBox="0 0 29 26" fill="none" xmlns="http://www.w3.org/2000/svg">
<path d="M28.5175 2.08897L19.7675 24.6931C19.6809 24.917 19.5404 25.1161 19.3585 25.2726C19.1766 25.4292 18.9588 25.5384 18.7245 25.5907C18.4902 25.6429 18.2467 25.6365 18.0155 25.572C17.7843 25.5075 17.5726 25.387 17.3991 25.221L12.467 20.5033L9.44246 23.5265C9.3404 23.6282 9.21049 23.6974 9.06912 23.7254C8.92776 23.7533 8.78127 23.7388 8.64817 23.6835C8.51508 23.6283 8.40133 23.5349 8.3213 23.415C8.24126 23.2952 8.19853 23.1543 8.1985 23.0102V16.42L0.628295 9.17938C0.440467 8.99968 0.304083 8.77305 0.233265 8.52294C0.162446 8.27283 0.159766 8.00833 0.225503 7.75684C0.291239 7.50534 0.423003 7.27599 0.607152 7.09252C0.791301 6.90905 1.02114 6.77814 1.27288 6.71334L26.7937 0.150841C27.0532 0.0843756 27.3259 0.0906477 27.5821 0.16897C27.8382 0.247291 28.0678 0.394637 28.2457 0.594847C28.4236 0.795056 28.543 1.0404 28.5906 1.30395C28.6383 1.56751 28.6125 1.83912 28.516 2.08897H28.5175ZM24.9693 3.75147L8.97434 14.18L11.5045 16.6008L24.9693 3.75001V3.75147Z" fill="#47AE34"/>
</svg>
